# xmcd CD database file
#
# Track frame offsets:
#	150
#	14918
#	32485
#	45463
#	62243
#	79635
#	94690
#	109623
#	124525
#	142545
#
# Disc length: 2095 seconds
#
# Revision: 4
# Processed by: cddbd v1.5.2PL0 Copyright (c) Steve Scherf et al.
# Submitted via: CDex 1.79
#
DISCID=73082d0a
DTITLE=Michelle Wright - Michelle Wright
DYEAR=1990
DGENRE=Country
TTITLE0=All You Really Wanna Do
TTITLE1=New Kind Of Love
TTITLE2=Woman's Intuition
TTITLE3=Wide Open
TTITLE4=Not Enough Love To Go 'Round
TTITLE5=The Longest Night
TTITLE6=The Dust Ain't Settled Yet
TTITLE7=A Heartbeat Away
TTITLE8=Like A Hurricane
TTITLE9=As Far As Lonely Goes
EXTD=YEAR: 1990
EXTT0=
EXTT1=
EXTT2=
EXTT3=
EXTT4=
EXTT5=
EXTT6=
EXTT7=
EXTT8=
EXTT9=
PLAYORDER=
